<?xml version="1.0" standalone="no"?>
<!DOCTYPE svg PUBLIC "-//W3C//DTD SVG 20010904//EN"
 "http://www.w3.org/TR/2001/REC-SVG-20010904/DTD/svg10.dtd">
<svg version="1.0" xmlns="http://www.w3.org/2000/svg"
 width="3252.000000pt" height="3252.000000pt" viewBox="0 0 3252.000000 3252.000000"
 preserveAspectRatio="xMidYMid meet">
<metadata>
Created by potrace 1.11, written by Peter Selinger 2001-2013
</metadata>
<g transform="translate(0.000000,3252.000000) scale(0.100000,-0.100000)"
fill="#000000" stroke="none">
<path d="M6695 26213 c-827 -43 -1634 -215 -2376 -506 -1347 -529 -2439 -1387
-3163 -2485 -623 -946 -1005 -2040 -1120 -3207 -42 -421 -47 -1070 -12 -1333
96 -714 338 -1353 766 -2022 47 -74 112 -171 143 -215 48 -68 55 -82 44 -97
-573 -805 -856 -1558 -959 -2548 -9 -83 -13 -273 -13 -570 1 -393 3 -470 24
-655 118 -1097 469 -2060 1095 -3010 608 -921 1379 -1659 2326 -2227 904 -543
1842 -868 2860 -993 386 -47 109 -45 6763 -45 l6237 0 0 6935 0 6935 3086 0
c2736 0 3098 -2 3191 -16 439 -65 752 -301 838 -634 36 -142 30 -392 -15 -564
-68 -257 -232 -448 -471 -546 -84 -35 -114 -44 -239 -73 l-95 -21 -2737 -3
-2738 -3 0 -445 0 -445 2653 0 c1654 0 2703 4 2787 10 436 32 783 140 1075
334 397 265 594 618 666 1191 20 158 17 509 -5 630 -63 349 -204 620 -452 868
-322 324 -703 511 -1199 589 -63 9 -856 13 -3657 15 l-3578 3 0 -6940 0 -6940
-5827 3 c-6381 3 -5869 -2 -6298 58 -1538 212 -3006 1027 -4013 2229 -544 650
-965 1428 -1186 2192 -230 797 -284 1647 -155 2418 124 744 438 1481 911 2143
48 67 88 125 88 128 0 3 -32 46 -71 95 -407 510 -683 1093 -868 1831 -113 449
-146 777 -122 1208 48 869 239 1610 615 2381 540 1107 1328 1963 2361 2569
834 489 1698 776 2620 870 319 32 528 35 3213 35 l2702 0 0 440 0 440 -2817
-2 c-1550 -1 -2845 -3 -2878 -5z"/>
<path d="M13210 19305 l0 -6915 -3074 0 c-3351 0 -3191 -3 -3392 56 -291 84
-531 275 -619 493 -44 108 -58 211 -52 371 21 490 245 762 717 869 l115 26
2743 2 2742 3 0 445 0 446 -2757 -4 c-2540 -3 -2767 -4 -2873 -20 -311 -46
-502 -102 -715 -207 -560 -278 -819 -737 -851 -1505 -13 -329 32 -559 161
-820 220 -441 685 -800 1205 -929 262 -65 -75 -60 3918 -63 l3622 -3 0 6895 0
6895 5833 -3 c6330 -3 5866 1 6282 -52 808 -104 1607 -375 2315 -787 534 -311
921 -607 1346 -1032 506 -507 862 -1001 1178 -1636 321 -646 505 -1293 571
-2010 116 -1265 -198 -2414 -951 -3477 -52 -73 -94 -135 -94 -138 0 -3 35 -50
79 -104 325 -409 566 -867 746 -1421 197 -610 265 -1071 236 -1605 -47 -866
-238 -1608 -611 -2373 -319 -654 -677 -1161 -1169 -1653 -330 -329 -623 -568
-996 -811 -862 -562 -1851 -917 -2855 -1023 -315 -33 -493 -35 -3182 -35
l-2698 0 0 -440 0 -440 2778 0 c1791 0 2834 4 2937 10 690 45 1310 165 1955
379 1022 340 1894 851 2656 1558 506 470 962 1090 1305 1775 169 338 272 585
390 938 201 603 319 1235 360 1922 15 266 7 843 -15 998 -110 780 -373 1441
-860 2160 -87 129 -103 158 -93 171 68 93 271 406 325 502 356 628 553 1265
634 2047 9 83 13 273 13 570 -1 393 -3 470 -24 655 -117 1083 -468 2056 -1076
2980 -284 433 -555 765 -920 1130 -430 430 -860 766 -1397 1092 -1006 608
-2076 944 -3256 1023 -102 7 -2269 10 -6393 10 l-6239 0 0 -6915z"/>
<path d="M6965 24513 c-917 -32 -1800 -282 -2586 -733 -708 -406 -1304 -962
-1760 -1641 -522 -779 -813 -1628 -879 -2569 -13 -187 -13 -562 0 -715 74
-858 423 -1661 1041 -2394 57 -68 110 -132 117 -142 12 -16 4 -30 -80 -131
-645 -774 -1004 -1633 -1078 -2582 -13 -165 -13 -532 0 -706 80 -1079 499
-2060 1268 -2970 124 -148 434 -458 582 -582 261 -221 561 -433 830 -588 187
-108 562 -289 761 -368 511 -203 954 -310 1559 -374 89 -9 1345 -13 5468 -15
l5352 -3 0 6940 0 6940 4043 -3 4042 -2 140 -23 c605 -98 1075 -325 1541 -743
297 -266 539 -596 678 -923 124 -289 176 -560 176 -916 0 -489 -87 -901 -271
-1276 -189 -387 -465 -691 -869 -956 -367 -241 -742 -379 -1240 -455 -107 -16
-308 -17 -2892 -20 l-2778 -3 0 -445 0 -445 2653 0 c1788 0 2691 4 2772 11
167 15 226 13 415 -15 863 -127 1438 -460 1845 -1071 192 -289 307 -595 350
-935 21 -165 16 -566 -10 -750 -41 -294 -125 -575 -241 -809 -125 -252 -233
-402 -438 -606 -223 -222 -436 -373 -731 -516 -335 -163 -704 -257 -1130 -289
-91 -6 -1069 -10 -2812 -10 l-2673 0 0 -440 0 -440 2813 3 c3089 3 2852 -1
3202 62 683 125 1263 405 1789 865 578 506 935 1151 1066 1925 46 276 55 394
55 730 -1 345 -13 490 -66 749 -187 921 -752 1576 -1674 1941 -66 26 -121 49
-123 50 -2 1 50 33 115 70 526 301 930 690 1244 1195 269 432 432 924 489
1475 31 297 23 684 -21 955 -125 788 -552 1489 -1272 2089 -509 423 -1121 705
-1751 806 -323 52 0 49 -4843 52 l-4483 3 0 -6940 0 -6940 -4842 0 c-3091 0
-4892 4 -4978 10 -1018 74 -1896 446 -2705 1145 -130 112 -402 382 -510 505
-487 555 -810 1195 -951 1883 -127 625 -101 1357 71 1979 189 680 531 1262
1057 1794 l129 130 -113 91 c-437 349 -759 851 -999 1553 -180 523 -243 937
-219 1424 63 1315 569 2341 1560 3165 765 637 1636 981 2658 1051 100 6 1092
10 2858 10 l2704 0 0 445 0 445 -2672 -2 c-1470 -1 -2709 -3 -2753 -5z"/>
<path d="M14960 17600 l0 -6920 -3949 0 c-2609 0 -3992 3 -4077 10 -675 54
-1247 308 -1764 784 -375 345 -639 761 -754 1186 -51 190 -68 319 -73 563 -12
515 75 951 267 1342 188 384 465 691 855 950 364 240 729 378 1210 457 l140
23 2788 2 2787 3 0 445 0 445 -2742 -3 c-1513 -3 -2768 -8 -2798 -13 -95 -15
-403 27 -666 91 -582 143 -1019 408 -1345 817 -275 344 -432 708 -484 1118
-21 165 -16 566 10 750 68 490 252 927 527 1255 252 301 611 566 981 725 272
116 511 179 887 232 64 9 773 13 2858 15 l2772 3 0 446 0 445 -2757 -4 c-2894
-3 -2796 -2 -3118 -48 -807 -115 -1517 -470 -2090 -1043 -178 -178 -286 -309
-410 -496 -300 -452 -467 -939 -537 -1570 -20 -179 -17 -710 5 -890 106 -871
479 -1501 1150 -1941 141 -92 405 -228 572 -294 66 -26 121 -49 123 -50 2 -2
-39 -27 -90 -55 -537 -303 -951 -697 -1269 -1210 -269 -432 -432 -924 -489
-1475 -31 -297 -23 -684 21 -955 128 -804 584 -1537 1324 -2130 573 -459 1224
-725 1952 -795 126 -12 803 -15 4611 -15 l4462 0 0 6915 0 6915 4843 0 c3152
0 4893 -4 4987 -10 1185 -83 2204 -577 3075 -1490 484 -507 822 -1079 1003
-1700 281 -961 181 -2117 -260 -2994 -115 -230 -304 -524 -462 -721 -117 -146
-332 -381 -404 -443 -29 -25 -51 -48 -50 -52 2 -5 46 -41 98 -81 112 -86 308
-280 404 -399 378 -472 699 -1248 801 -1935 65 -445 24 -1064 -106 -1594 -225
-916 -725 -1680 -1511 -2308 -645 -515 -1377 -839 -2168 -958 -343 -52 -172
-49 -3177 -52 l-2793 -3 0 -445 0 -445 2633 0 c2514 0 2881 4 3132 30 796 83
1547 328 2256 736 690 396 1291 962 1751 1646 521 778 811 1626 878 2570 13
189 13 551 -1 715 -71 868 -433 1692 -1073 2441 -60 70 -94 117 -89 125 4 6
43 54 86 106 378 450 689 998 866 1528 234 701 285 1510 145 2283 -225 1238
-981 2432 -2039 3221 -824 614 -1769 985 -2770 1089 -268 27 -686 30 -5727 30
l-5218 0 0 -6920z"/>
<path d="M6980 21053 c-622 -30 -1179 -266 -1460 -618 -200 -252 -305 -586
-326 -1035 -27 -595 153 -1079 509 -1365 246 -199 547 -314 987 -378 144 -21
156 -21 2923 -24 l2777 -4 0 446 0 445 -2772 3 c-2583 3 -2779 4 -2858 20
-361 74 -516 163 -609 348 -61 121 -76 203 -76 409 0 149 4 187 23 258 74 274
237 442 522 536 234 77 -31 71 3033 74 l2737 2 0 445 0 445 -2672 -2 c-1470
-1 -2702 -3 -2738 -5z"/>
<path d="M20130 14445 l0 -445 2798 -3 2797 -3 113 -22 c336 -65 489 -174 568
-404 34 -100 48 -222 41 -368 -7 -150 -31 -252 -88 -370 -34 -69 -58 -101
-128 -170 -129 -127 -273 -195 -516 -243 l-110 -21 -2737 -3 -2738 -3 0 -420
0 -420 2793 3 c3077 3 2845 -2 3137 63 496 111 877 366 1068 715 153 281 226
698 193 1107 -26 330 -99 563 -246 782 -260 391 -736 611 -1430 660 -87 6
-1158 10 -2827 10 l-2688 0 0 -445z"/>
</g>
</svg>
